HIERARCHY
ROOT Hips
{
	OFFSET 0.000000 0.000000 0.000000
	CHANNELS 6 Xposition Yposition Zposition Zrotation Yrotation Xrotation 
	JOINT LowerBack
	{
		OFFSET 0.000000 0.000000 0.000000
		CHANNELS 3 Zrotation Yrotation Xrotation
		JOINT Spine
		{
			OFFSET 0.028270 2.035590 -0.193380
			CHANNELS 3 Zrotation Yrotation Xrotation
			JOINT Spine1
			{
				OFFSET 0.056720 2.048850 -0.042750
				CHANNELS 3 Zrotation Yrotation Xrotation
				JOINT Neck
				{
					OFFSET 0.000000 0.000000 0.000000
					CHANNELS 3 Zrotation Yrotation Xrotation
					JOINT Neck1
					{
						OFFSET -0.054170 1.746240 0.172020
						CHANNELS 3 Zrotation Yrotation Xrotation
						JOINT Head
						{
							OFFSET 0.104070 1.761360 -0.123970
							CHANNELS 3 Zrotation Yrotation Xrotation
							End Site
							{
								OFFSET 0.000000 0.000000 0.000000
							}
						}
					}
				}
				JOINT LeftShoulder
				{
					OFFSET 0.000000 0.000000 0.000000
					CHANNELS 3 Zrotation Yrotation Xrotation
					JOINT LeftArm
					{
						OFFSET 3.362410 1.200890 -0.311210
						CHANNELS 3 Zrotation Yrotation Xrotation
						JOINT LeftForeArm
						{
							OFFSET 4.983000 -0.000000 -0.000000
							CHANNELS 3 Zrotation Yrotation Xrotation
							JOINT LeftHand
							{
								OFFSET 3.483560 -0.000000 -0.000000
								CHANNELS 3 Zrotation Yrotation Xrotation
								JOINT LeftFingerBase
								{
									OFFSET 0.000000 0.000000 0.000000
									CHANNELS 3 Zrotation Yrotation Xrotation
									JOINT LeftHandIndex1
									{
										OFFSET 0.715260 -0.000000 -0.000000
										CHANNELS 3 Zrotation Yrotation Xrotation
										End Site
										{
											OFFSET 0.000000 0.000000 0.000000
										}
									}
								}
								JOINT LThumb
								{
									OFFSET 0.000000 0.000000 0.000000
									CHANNELS 3 Zrotation Yrotation Xrotation
									End Site
									{
										OFFSET 0.000000 0.000000 0.000000
									}
								}
							}
						}
					}
				}
				JOINT RightShoulder
				{
					OFFSET 0.000000 0.000000 0.000000
					CHANNELS 3 Zrotation Yrotation Xrotation
					JOINT RightArm
					{
						OFFSET -3.136600 1.374050 -0.404650
						CHANNELS 3 Zrotation Yrotation Xrotation
						JOINT RightForeArm
						{
							OFFSET -5.241900 -0.000000 -0.000000
							CHANNELS 3 Zrotation Yrotation Xrotation
							JOINT RightHand
							{
								OFFSET -3.444170 -0.000000 -0.000000
								CHANNELS 3 Zrotation Yrotation Xrotation
								JOINT RightFingerBase
								{
									OFFSET 0.000000 0.000000 0.000000
									CHANNELS 3 Zrotation Yrotation Xrotation
									JOINT RightHandIndex1
									{
										OFFSET -0.622530 -0.000000 -0.000000
										CHANNELS 3 Zrotation Yrotation Xrotation
										End Site
										{
											OFFSET 0.000000 0.000000 0.000000
										}
									}
								}
								JOINT RThumb
								{
									OFFSET 0.000000 0.000000 0.000000
									CHANNELS 3 Zrotation Yrotation Xrotation
									End Site
									{
										OFFSET 0.000000 0.000000 0.000000
									}
								}
							}
						}
					}
				}
			}
		}
	}
}
}
MOTION
Frames: 6
Frame Time: 0.008333
0.748606 17.085737 0.509876 175.045155 -69.629803 -160.424103 -2.501916 -0.166125 -10.909994 -0.943730 -0.306951 -3.829593 -6.238218 -0.121221 4.191606 10.632949 -15.036602 -11.221874 -2.725628 -0.174469 -0.930861 0.000000 0.000000 0.000000 10.503822 19.124506 -2.678036 -83.182411 -2.931787 18.903923 -179.355751 -43.278320 179.836338 15.974544 -53.279227 -8.752674 -0.324857 2.874231 -0.000000 0.000000 0.000000 0.000000 0.000000 0.000000 0.000000 -0.088913 -10.121732 -4.004363 86.969404 16.811899 37.915301 -178.882834 51.866447 179.788684 -31.352090 44.719919 -14.189514 0.781525 -2.196946 -0.000000 0.000000 0.000000 0.000000 0.000000 0.000000 0.000000 
0.730024 17.088876 0.484556 175.714272 -68.135691 -160.830589 -2.224577 -0.029228 -11.287887 -0.911941 -0.212262 -3.859024 -6.239898 -0.027953 4.369497 10.586775 -15.052596 -11.321014 -2.702317 -0.171267 -0.958297 0.000000 0.000000 0.000000 10.348089 19.752604 -2.763862 -82.829040 -3.861585 18.409363 -179.105834 -43.334948 179.845370 14.656645 -53.634778 -8.084027 -0.288500 2.886503 -0.000000 0.000000 0.000000 0.000000 0.000000 0.000000 0.000000 -0.147064 -10.192587 -4.067601 87.119597 17.171742 38.328654 -178.913682 51.991888 179.791319 -31.172131 44.567866 -14.054916 0.782477 -2.192661 -0.000000 0.000000 0.000000 0.000000 0.000000 0.000000 0.000000 
0.711826 17.094502 0.459632 176.339372 -66.650328 -161.166903 -1.914286 0.116970 -11.678214 -0.880662 -0.112021 -3.896101 -6.258072 0.071977 4.515806 10.516936 -15.090992 -11.366146 -2.690842 -0.169740 -0.970938 0.000000 0.000000 0.000000 10.280412 20.215955 -2.881550 -82.317251 -5.000249 17.688256 -178.864716 -43.449238 179.853247 13.339867 -53.757306 -7.369490 -0.253436 2.889067 -0.000000 0.000000 0.000000 0.000000 0.000000 0.000000 0.000000 -0.185276 -10.324517 -4.104615 87.250650 17.531537 38.723439 -178.945375 52.135179 179.793593 -31.042952 44.426629 -13.947531 0.783726 -2.187426 -0.000000 0.000000 0.000000 0.000000 0.000000 0.000000 0.000000 
0.694413 17.102608 0.434808 176.906283 -65.195605 -161.420113 -1.579011 0.264411 -12.080042 -0.851372 -0.013861 -3.943615 -6.296797 0.170809 4.617197 10.425645 -15.154060 -11.351019 -2.693897 -0.170247 -0.966825 0.000000 0.000000 0.000000 10.316215 20.457227 -3.023817 -81.580419 -6.289669 16.711497 -178.656429 -43.594864 179.859045 12.265476 -53.665649 -6.756678 -0.225678 2.881895 -0.000000 0.000000 0.000000 0.000000 0.000000 0.000000 0.000000 -0.191863 -10.516935 -4.109551 87.356865 17.889688 39.102554 -178.980941 52.297473 179.795509 -30.992274 44.297888 -13.880545 0.786235 -2.181490 -0.000000 0.000000 0.000000 0.000000 0.000000 0.000000 0.000000 
0.677767 17.113016 0.409869 177.410578 -63.791403 -161.583681 -1.226249 0.403695 -12.493416 -0.824959 0.073074 -4.003644 -6.359530 0.259195 4.665098 10.317532 -15.240886 -11.274700 -2.712973 -0.172953 -0.945496 0.000000 0.000000 0.000000 10.462125 20.435924 -3.179087 -80.545922 -7.666066 15.460418 -178.502190 -43.739850 179.861880 11.659535 -53.420870 -6.385714 -0.210769 2.866516 -0.000000 0.000000 0.000000 0.000000 0.000000 0.000000 0.000000 -0.157065 -10.764885 -4.079703 87.433979 18.247594 39.469951 -179.023439 52.477348 179.797097 -31.042890 44.182866 -13.864645 0.790907 -2.175190 -0.000000 0.000000 0.000000 0.000000 0.000000 0.000000 0.000000 
0.662480 17.125625 0.384725 177.843273 -62.455246 -161.662416 -0.868384 0.525057 -12.906423 -0.802748 0.140216 -4.075372 -6.448120 0.328424 4.654521 10.201757 -15.349756 -11.139063 -2.748750 -0.177873 -0.907452 0.000000 0.000000 0.000000 10.720354 20.127809 -3.333729 -79.152063 -9.068266 13.925216 -178.420285 -43.859205 179.860886 11.697544 -53.099919 -6.362130 -0.212910 2.844844 -0.000000 0.000000 0.000000 0.000000 0.000000 0.000000 0.000000 -0.065773 -11.062309 -4.014501 87.473191 18.613800 39.827121 -179.076508 52.675928 179.798405 -31.213204 44.079570 -13.907429 0.798550 -2.168697 -0.000000 0.000000 0.000000 0.000000 0.000000 0.000000 0.000000 
